<svg width="235" height="134" viewBox="0 0 235 134" fill="none" xmlns="http://www.w3.org/2000/svg">
    <path d="M28.1561 0.00732422H0V133.662H28.1561V0.00732422Z" fill="black"/>
    <path
        d="M205.997 68.7483C196.716 68.7483 187.706 66.9293 179.214 63.3404C171.021 59.8782 163.666 54.9206 157.353 48.6119C151.04 42.3032 146.083 34.953 142.615 26.7654C139.024 18.2822 137.203 9.27481 137.203 0H165.359C165.359 10.8476 169.588 21.0443 177.263 28.7146C184.939 36.385 195.142 40.6107 205.997 40.6107V68.7483Z"
        fill="black"/>
    <path
        d="M169.176 133.683V105.545C179.01 105.545 188.259 101.717 195.213 94.7677C202.166 87.8187 205.997 78.579 205.997 68.7483H234.153C234.153 77.5094 232.435 86.0137 229.041 94.0288C225.766 101.763 221.084 108.705 215.123 114.665C209.159 120.625 202.212 125.305 194.473 128.574C186.453 131.962 177.939 133.683 169.176 133.683Z"
        fill="black"/>
    <path d="M234.153 0H205.997V40.6107H234.153V0Z" fill="black"/>
    <path
        d="M144.453 105.52H116.29C116.29 100.183 114.526 94.8697 111.322 90.556C108.737 87.0762 104.435 84.3705 97.3721 81.7773C95.9708 81.2636 94.5413 80.764 93.0274 80.2362C84.6513 77.3123 75.1592 73.9979 66.9943 66.7216C58.0092 58.7134 52.0977 47.7884 50.3514 35.9521C49.9711 33.3836 49.781 30.7553 49.781 28.1445H77.9441C77.9441 29.3866 78.0357 30.6321 78.2152 31.846C79.0004 37.1695 81.6762 42.099 85.7428 45.723C89.7354 49.2803 95.8476 51.4125 102.322 53.6749C103.875 54.2168 105.477 54.7762 107.09 55.3673C114.864 58.2208 126.106 63.2347 133.947 73.7903C140.717 82.9173 144.453 94.1871 144.453 105.52Z"
        fill="black"/>
    <path d="M106.097 0H77.9407V28.1376H106.097V0Z" fill="black"/>
    <path d="M116.29 105.545H88.1335V133.683H116.29V105.545Z" fill="black"/>
</svg>
