<svg width="160" height="54" viewBox="0 0 160 54" fill="none" xmlns="http://www.w3.org/2000/svg">
<path d="M14.0463 6.54468V21.1922L2.02822 6.54468H0V25.4662H2.3924V10.9022L14.2536 25.4662H16.4387V6.54468H14.0463Z" fill="white"/>
<path d="M25.4929 12.761C22.008 12.761 19.3242 15.5324 19.3242 19.1108C19.3242 22.9397 21.9015 25.7167 25.4929 25.7167C29.2356 25.7167 31.8129 23.051 31.8129 19.1108C31.8185 15.4211 29.1628 12.761 25.4929 12.761ZM25.4705 14.9815C27.7845 14.9815 29.4485 16.729 29.4485 19.1442C29.4485 21.8378 27.9134 23.5018 25.4705 23.5018C23.235 23.5018 21.6998 21.7543 21.6998 19.1164C21.6942 16.729 23.2854 14.9815 25.4705 14.9815Z" fill="white"/>
<path d="M36.8611 13.0115V15.872H36.9115C38.0825 13.6793 39.2031 12.7666 40.2956 12.7666C41.2313 12.7666 42.1166 13.2396 43.0802 14.208L41.8588 16.345C41.1529 15.6215 40.2452 15.1262 39.7017 15.1262C38.1161 15.1262 36.8667 16.818 36.8667 18.9551V25.4774H34.5527V13.0226H36.8611V13.0115Z" fill="white"/>
<path d="M52.6333 16.256C51.3054 15.3099 50.4202 15.0372 49.4061 15.0372C47.2994 15.0372 45.8426 16.729 45.8426 19.25C45.8426 21.8323 47.4058 23.3849 49.7982 23.3849C50.7843 23.3849 51.72 23.1067 52.891 22.5502V24.9933C52.1122 25.3828 50.6275 25.7167 49.4061 25.7167C45.9211 25.7167 43.4727 23.1401 43.4727 19.4782C43.4727 15.3711 45.7138 12.7666 49.2492 12.7666C50.6051 12.7666 51.5127 13.1005 52.6333 13.6292V16.256Z" fill="white"/>
<path d="M60.9033 12.761C57.4184 12.761 54.7402 15.5324 54.7402 19.1108C54.7402 22.9397 57.3175 25.7167 60.9033 25.7167C64.6516 25.7167 67.2233 23.051 67.2233 19.1108C67.2289 15.4211 64.5732 12.761 60.9033 12.761ZM60.8809 14.9815C63.1949 14.9815 64.8589 16.729 64.8589 19.1442C64.8589 21.8378 63.3238 23.5018 60.8809 23.5018C58.6454 23.5018 57.1102 21.7543 57.1102 19.1164C57.1102 16.729 58.6958 14.9815 60.8809 14.9815Z" fill="white"/>
<path d="M72.0698 14.6476H72.1203C73.0055 13.4566 74.3053 12.761 75.6052 12.761C77.8183 12.761 79.5832 14.3693 79.5832 17.7808V25.4663H77.2692V17.7529C77.2692 15.922 76.384 14.7311 74.9833 14.7311C73.9692 14.7311 73.1624 15.2319 72.0698 16.5342V25.4663H69.7559V13.0114H72.0698V14.6476Z" fill="white"/>
<path d="M89.606 16.2281C88.3061 15.3154 87.0791 14.9258 86.2219 14.9258C85.2862 14.9258 84.6867 15.3933 84.6867 16.0611C84.6867 16.6176 85.4655 17.2799 87.5217 18.5599C89.4491 19.9178 90.1495 20.7804 90.1495 22.0548C90.1495 24.2475 88.5135 25.7167 86.3003 25.7167C84.8716 25.7167 83.751 25.4106 82.2383 24.5814V21.9157C83.7454 23.0232 85.1293 23.5519 86.065 23.5519C87.0007 23.4962 87.7795 23.0232 87.7795 22.1383C87.7795 20.4187 82.3167 19.5004 82.3167 16.1446C82.3167 14.0354 83.8239 12.761 86.1659 12.761C87.2584 12.761 88.379 13.0949 89.6004 13.7905V16.2281H89.606Z" fill="white"/>
<path d="M100.247 25.4663V23.8858C99.2829 24.9933 97.9326 25.7167 96.784 25.7167C94.414 25.7167 92.75 23.9136 92.75 20.7526V13.0115H95.064V20.9196C95.064 22.667 95.8708 23.6632 97.4564 23.6632C98.4985 23.6632 99.4846 23.051 100.241 21.9157V13.0115H102.555V25.4663H100.247Z" fill="white"/>
<path d="M108.203 6.54468H105.889V25.4662H108.203V6.54468Z" fill="white"/>
<path d="M114.243 13.0116H117.935V15.2321H114.243V21.6098C114.243 23.079 115.229 23.4964 115.907 23.4964C116.741 23.4964 117.599 23.1903 118.534 22.5781V24.8821C117.728 25.3551 116.478 25.7113 115.727 25.7113C113.206 25.7113 111.929 24.0473 111.929 21.799V15.221H109.9V14.9427L114.243 10.4182V13.0116Z" fill="white"/>
<path d="M124.982 17.4023L132.826 25.1991L140.67 17.4023L132.826 9.61104L124.982 17.4023ZM144.307 17.3911L152.156 25.1879L160 17.3911L152.156 9.59434L144.307 17.3911ZM142.497 0L134.653 7.7968L142.497 15.588L150.341 7.7968L142.497 0Z" fill="white"/>
<path d="M148.594 26.9911C148.594 30.3414 145.859 33.0516 142.492 33.0516C139.119 33.0516 136.391 30.3358 136.391 26.9911C136.391 23.6409 139.125 20.9307 142.492 20.9307C145.859 20.9307 148.594 23.6409 148.594 26.9911Z" fill="white"/>
<path d="M98.7501 34.5597C98.7501 34.9103 98.4643 35.1942 98.1114 35.1942C97.7584 35.1942 97.4727 34.9103 97.4727 34.5597C97.4727 34.2091 97.7584 33.9253 98.1114 33.9253C98.4643 33.9253 98.7501 34.2091 98.7501 34.5597Z" fill="white"/>
<path d="M85.7794 34.5597C85.7794 34.9103 85.4937 35.1942 85.1407 35.1942C84.7877 35.1942 84.502 34.9103 84.502 34.5597C84.502 34.2091 84.7877 33.9253 85.1407 33.9253C85.4881 33.9253 85.7794 34.2091 85.7794 34.5597Z" fill="white"/>
<path d="M80.6192 34.5041C80.0365 33.8308 79.2353 33.2798 78.2436 32.868C77.2519 32.4562 76.0473 32.2502 74.6522 32.2502H69.7441V46.102H74.8315C76.1426 46.102 77.2911 45.9016 78.2492 45.5009C79.2073 45.1058 79.9861 44.566 80.5744 43.8926C81.1571 43.2248 81.5885 42.4735 81.8519 41.6665C82.1152 40.8596 82.2497 40.0192 82.2497 39.1733C82.2497 38.3497 82.1208 37.5316 81.8743 36.7302C81.6277 35.9288 81.2075 35.1775 80.6192 34.5041ZM80.961 39.1733C80.961 40.0971 80.7985 40.9375 80.4736 41.6665C80.1486 42.4011 79.6948 43.0244 79.1233 43.5308C78.5518 44.0373 77.885 44.4268 77.1455 44.6828C76.4003 44.9388 75.6047 45.0724 74.7811 45.0724H70.9656V33.2687H74.7195C75.6383 33.2687 76.4899 33.4134 77.2575 33.6972C78.0195 33.981 78.6863 34.3928 79.2353 34.916C79.7844 35.4447 80.2158 36.0735 80.5128 36.7914C80.8097 37.5149 80.961 38.3163 80.961 39.1733Z" fill="white"/>
<path d="M85.6562 36.9307H84.5469V46.0965H85.6562V36.9307Z" fill="white"/>
<path d="M89.9589 37.2087C89.4434 37.3924 89.0288 37.6484 88.7151 37.9711C88.4069 38.2939 88.1772 38.6501 88.0427 39.0285C87.9083 39.407 87.8354 39.8076 87.8354 40.2195C87.8354 40.8595 88.0371 41.4772 88.4349 42.0504C88.8103 42.5902 89.393 42.9854 90.1606 43.2358C89.6003 43.4139 89.1969 43.5975 88.9168 43.7923C88.603 44.0149 88.4405 44.3266 88.4405 44.7217C88.4405 45.3339 88.8831 45.7735 89.7516 46.0184C89.0008 46.1631 88.4069 46.4079 87.9811 46.7585C87.5105 47.1481 87.2695 47.6434 87.2695 48.2389C87.2695 48.9568 87.6169 49.5578 88.3004 50.0253C88.9784 50.4872 89.9925 50.7209 91.326 50.7209C92.6034 50.7209 93.6175 50.4816 94.3515 50.0142C95.0911 49.5411 95.4665 48.8677 95.4665 48.0163C95.4665 47.482 95.3544 47.0424 95.1303 46.714C94.9062 46.3857 94.6149 46.1297 94.2507 45.9683C93.8921 45.8069 93.5223 45.6956 93.1469 45.6511C92.7715 45.6066 92.2841 45.5565 91.6958 45.5175C90.9338 45.4786 90.3679 45.4006 90.0149 45.2893C89.6787 45.1836 89.5163 44.9721 89.5163 44.6438C89.5163 44.36 89.6451 44.1596 89.9029 44.0205C90.183 43.8758 90.6368 43.7144 91.2644 43.5419C91.7686 43.4194 92.2 43.297 92.5474 43.169C92.9004 43.041 93.2478 42.8518 93.5783 42.6181C93.9089 42.3788 94.1778 42.056 94.3795 41.6608C94.5812 41.2657 94.6821 40.7649 94.6821 40.1805C94.6821 39.7297 94.5812 39.3068 94.3795 38.9228C94.2002 38.5778 93.9145 38.2216 93.5335 37.8598H95.4889V36.936H91.7742C91.0795 36.9305 90.4688 37.0251 89.9589 37.2087ZM88.3397 48.1777C88.3397 47.8493 88.4461 47.5766 88.6534 47.3596C88.8663 47.1425 89.1409 46.9756 89.4658 46.8643C89.7964 46.753 90.1438 46.6751 90.5024 46.6361C90.861 46.5971 91.2195 46.5749 91.5669 46.5749C92.469 46.5749 93.1805 46.6918 93.6736 46.9199C94.1554 47.1425 94.3907 47.5265 94.3907 48.0942C94.3907 48.6062 94.1274 49.0069 93.5839 49.3129C93.0349 49.619 92.2953 49.7749 91.382 49.7749C90.4015 49.7749 89.6339 49.6302 89.1073 49.3519C88.5974 49.0792 88.3397 48.6952 88.3397 48.1777ZM92.906 38.5611C93.371 39.0174 93.6063 39.5683 93.6063 40.2028C93.6063 40.8483 93.3766 41.4104 92.9172 41.8612C92.4578 42.3175 91.8975 42.5457 91.2475 42.5457C90.5808 42.5457 90.0205 42.312 89.5779 41.8501C89.1353 41.3881 88.9112 40.8205 88.9112 40.1583C88.9112 39.5238 89.1353 38.9784 89.5779 38.5388C90.0205 38.0991 90.5752 37.8765 91.2307 37.8765C91.8807 37.8765 92.4465 38.1047 92.906 38.5611Z" fill="white"/>
<path d="M98.6328 36.9307H97.5234V46.0965H98.6328V36.9307Z" fill="white"/>
<path d="M105.591 45.117C105.384 45.167 105.143 45.1949 104.879 45.1949C104.291 45.1949 103.927 45.0669 103.798 44.822C103.664 44.5604 103.591 43.9984 103.591 43.1525V37.8544H106.14V36.9306H103.591V33.9365H103.182L102.476 34.827V36.9306H100.027V37.8544H102.476V44.2766C102.476 44.9277 102.694 45.4286 103.131 45.7681C103.563 46.1075 104.073 46.2745 104.65 46.2745C104.902 46.2745 105.249 46.2188 105.72 46.1131C106.134 45.9907 106.409 45.8905 106.56 45.807L106.594 45.7848V44.7107L106.493 44.7552C106.112 44.9444 105.804 45.0669 105.591 45.117Z" fill="white"/>
<path d="M114.527 44.9779C114.225 45.1671 114.107 45.2005 114.057 45.2005C113.933 45.2005 113.905 44.989 113.905 44.8053V39.1734C113.905 38.7059 113.816 38.3108 113.631 37.9936C113.452 37.6763 113.205 37.4259 112.908 37.2423C112.611 37.0642 112.297 36.9362 111.978 36.8638C111.166 36.6746 110.308 36.7303 109.552 36.9751C109.098 37.1254 108.583 37.3758 108.028 37.7264L107.995 37.7487V38.9118L108.107 38.8283C108.65 38.4165 109.132 38.1216 109.541 37.9546C109.944 37.7821 110.381 37.6986 110.841 37.6986C112.157 37.6986 112.796 38.283 112.796 39.4795V40.5591C112.118 40.5869 111.468 40.6704 110.858 40.7984C110.224 40.932 109.653 41.1379 109.149 41.3994C108.639 41.6666 108.235 42.0116 107.938 42.4234C107.642 42.8408 107.49 43.3472 107.49 43.9205C107.49 44.566 107.737 45.1281 108.219 45.59C108.7 46.0519 109.306 46.2857 110.006 46.2857C110.499 46.2857 110.981 46.191 111.451 46.0074C111.883 45.8349 112.337 45.5733 112.807 45.2172C112.847 45.6178 112.914 45.885 112.998 46.0241C113.099 46.191 113.272 46.2801 113.513 46.2801C113.726 46.2801 113.962 46.2189 114.214 46.102C114.46 45.9851 114.796 45.7681 115.239 45.4398L115.429 45.3006V44.3156L115.317 44.4046C115.026 44.6328 114.763 44.8276 114.527 44.9779ZM112.796 41.4941V44.2099C112.342 44.6217 111.916 44.9166 111.541 45.0836C111.16 45.2505 110.757 45.3396 110.336 45.3396C109.843 45.3396 109.423 45.2005 109.098 44.9333C108.773 44.6662 108.605 44.3267 108.605 43.9205C108.605 43.2026 108.997 42.6127 109.776 42.173C110.549 41.7278 111.563 41.5052 112.796 41.4941Z" fill="white"/>
<path d="M117.934 32.2502H116.824V46.102H117.934V32.2502Z" fill="white"/>
</svg>
